<svg width="3840" height="2400" viewBox="0 0 3840 2400" fill="none" xmlns="http://www.w3.org/2000/svg">
<rect width="3840" height="2400" fill="#252525"/>
<path d="M1386.45 654.25V1606H1121.85V1223.95H799.2V1606H534.6V654.25H799.2V1012H1121.85V654.25H1386.45ZM2261.47 1218.55C2261.47 1239.25 2260.12 1259.95 2257.42 1280.65H1756.57C1759.27 1322.05 1770.52 1353.1 1790.32 1373.8C1811.02 1393.6 1837.12 1403.5 1868.62 1403.5C1912.72 1403.5 1944.22 1383.7 1963.12 1344.1H2245.27C2233.57 1396.3 2210.62 1443.1 2176.42 1484.5C2143.12 1525 2100.82 1556.95 2049.52 1580.35C1998.22 1603.75 1941.52 1615.45 1879.42 1615.45C1804.72 1615.45 1738.12 1599.7 1679.62 1568.2C1622.02 1536.7 1576.57 1491.7 1543.27 1433.2C1510.87 1374.7 1494.67 1305.85 1494.67 1226.65C1494.67 1147.45 1510.87 1079.05 1543.27 1021.45C1575.67 962.95 1620.67 917.95 1678.27 886.45C1736.77 854.95 1803.82 839.2 1879.42 839.2C1954.12 839.2 2020.27 854.5 2077.87 885.1C2135.47 915.7 2180.47 959.8 2212.87 1017.4C2245.27 1074.1 2261.47 1141.15 2261.47 1218.55ZM1991.47 1152.4C1991.47 1120 1980.67 1094.8 1959.07 1076.8C1937.47 1057.9 1910.47 1048.45 1878.07 1048.45C1845.67 1048.45 1819.12 1057.45 1798.42 1075.45C1777.72 1092.55 1764.22 1118.2 1757.92 1152.4H1991.47ZM3185.16 848.65L2704.56 1966.45H2417.01L2597.91 1573.6L2287.41 848.65H2581.71L2741.01 1277.95L2894.91 848.65H3185.16Z" fill="#F6F7F9"/>
<circle cx="3234" cy="1456" r="150" fill="url(#paint0_linear_701_6722)"/>
<defs>
<linearGradient id="paint0_linear_701_6722" x1="3234" y1="1306" x2="3234" y2="1606" gradientUnits="userSpaceOnUse">
<stop stop-color="#0083FF"/>
<stop offset="0.9999" stop-color="#69ADFF"/>
<stop offset="1" stop-color="white"/>
</linearGradient>
</defs>
</svg>
