<svg width="3840" height="2400" viewBox="0 0 3840 2400" fill="none" xmlns="http://www.w3.org/2000/svg">
<g clip-path="url(#clip0_701_6824)">
<rect width="3840" height="2400" fill="#252525"/>
<circle cx="189.48" cy="47.4805" r="426.725" transform="rotate(-45 189.48 47.4805)" fill="url(#paint0_linear_701_6824)"/>
<circle cx="189.48" cy="1200.93" r="426.725" transform="rotate(-45 189.48 1200.93)" fill="url(#paint1_linear_701_6824)"/>
<circle cx="1342.93" cy="47.4814" r="426.725" transform="rotate(-45 1342.93 47.4814)" fill="url(#paint2_linear_701_6824)"/>
<circle cx="1342.93" cy="1200.93" r="426.725" transform="rotate(-45 1342.93 1200.93)" fill="url(#paint3_linear_701_6824)"/>
<circle cx="2496.38" cy="47.4814" r="426.725" transform="rotate(-45 2496.38 47.4814)" fill="url(#paint4_linear_701_6824)"/>
<circle cx="2496.38" cy="1200.93" r="426.725" transform="rotate(-45 2496.38 1200.93)" fill="url(#paint5_linear_701_6824)"/>
<circle cx="3649.82" cy="47.4814" r="426.725" transform="rotate(-45 3649.82 47.4814)" fill="url(#paint6_linear_701_6824)"/>
<circle cx="189.484" cy="2354.38" r="426.725" transform="rotate(-45 189.484 2354.38)" fill="url(#paint7_linear_701_6824)"/>
<circle cx="1342.93" cy="2354.38" r="426.725" transform="rotate(-45 1342.93 2354.38)" fill="url(#paint8_linear_701_6824)"/>
<circle cx="2496.38" cy="2354.38" r="426.725" transform="rotate(-45 2496.38 2354.38)" fill="url(#paint9_linear_701_6824)"/>
<circle cx="3649.82" cy="2354.38" r="426.725" transform="rotate(-45 3649.82 2354.38)" fill="url(#paint10_linear_701_6824)"/>
<circle cx="3649.82" cy="1200.93" r="426.725" transform="rotate(-45 3649.82 1200.93)" fill="url(#paint11_linear_701_6824)"/>
</g>
<defs>
<linearGradient id="paint0_linear_701_6824" x1="189.48" y1="-379.245" x2="189.48" y2="474.205" gradientUnits="userSpaceOnUse">
<stop stop-color="#0083FF"/>
<stop offset="0.9999" stop-color="#69ADFF"/>
<stop offset="1" stop-color="white"/>
</linearGradient>
<linearGradient id="paint1_linear_701_6824" x1="189.48" y1="774.206" x2="189.48" y2="1627.66" gradientUnits="userSpaceOnUse">
<stop stop-color="#0083FF"/>
<stop offset="0.9999" stop-color="#69ADFF"/>
<stop offset="1" stop-color="white"/>
</linearGradient>
<linearGradient id="paint2_linear_701_6824" x1="1342.93" y1="-379.244" x2="1342.93" y2="474.206" gradientUnits="userSpaceOnUse">
<stop stop-color="#0083FF"/>
<stop offset="0.9999" stop-color="#69ADFF"/>
<stop offset="1" stop-color="white"/>
</linearGradient>
<linearGradient id="paint3_linear_701_6824" x1="1342.93" y1="774.207" x2="1342.93" y2="1627.66" gradientUnits="userSpaceOnUse">
<stop stop-color="#0083FF"/>
<stop offset="0.9999" stop-color="#69ADFF"/>
<stop offset="1" stop-color="white"/>
</linearGradient>
<linearGradient id="paint4_linear_701_6824" x1="2496.38" y1="-379.244" x2="2496.38" y2="474.206" gradientUnits="userSpaceOnUse">
<stop stop-color="#0083FF"/>
<stop offset="0.9999" stop-color="#69ADFF"/>
<stop offset="1" stop-color="white"/>
</linearGradient>
<linearGradient id="paint5_linear_701_6824" x1="2496.38" y1="774.206" x2="2496.38" y2="1627.66" gradientUnits="userSpaceOnUse">
<stop stop-color="#0083FF"/>
<stop offset="0.9999" stop-color="#69ADFF"/>
<stop offset="1" stop-color="white"/>
</linearGradient>
<linearGradient id="paint6_linear_701_6824" x1="3649.82" y1="-379.244" x2="3649.82" y2="474.206" gradientUnits="userSpaceOnUse">
<stop stop-color="#0083FF"/>
<stop offset="0.9999" stop-color="#69ADFF"/>
<stop offset="1" stop-color="white"/>
</linearGradient>
<linearGradient id="paint7_linear_701_6824" x1="189.484" y1="1927.66" x2="189.484" y2="2781.11" gradientUnits="userSpaceOnUse">
<stop stop-color="#0083FF"/>
<stop offset="0.9999" stop-color="#69ADFF"/>
<stop offset="1" stop-color="white"/>
</linearGradient>
<linearGradient id="paint8_linear_701_6824" x1="1342.93" y1="1927.66" x2="1342.93" y2="2781.11" gradientUnits="userSpaceOnUse">
<stop stop-color="#0083FF"/>
<stop offset="0.9999" stop-color="#69ADFF"/>
<stop offset="1" stop-color="white"/>
</linearGradient>
<linearGradient id="paint9_linear_701_6824" x1="2496.38" y1="1927.66" x2="2496.38" y2="2781.11" gradientUnits="userSpaceOnUse">
<stop stop-color="#0083FF"/>
<stop offset="0.9999" stop-color="#69ADFF"/>
<stop offset="1" stop-color="white"/>
</linearGradient>
<linearGradient id="paint10_linear_701_6824" x1="3649.82" y1="1927.66" x2="3649.82" y2="2781.11" gradientUnits="userSpaceOnUse">
<stop stop-color="#0083FF"/>
<stop offset="0.9999" stop-color="#69ADFF"/>
<stop offset="1" stop-color="white"/>
</linearGradient>
<linearGradient id="paint11_linear_701_6824" x1="3649.82" y1="774.207" x2="3649.82" y2="1627.66" gradientUnits="userSpaceOnUse">
<stop stop-color="#0083FF"/>
<stop offset="0.9999" stop-color="#69ADFF"/>
<stop offset="1" stop-color="white"/>
</linearGradient>
<clipPath id="clip0_701_6824">
<rect width="3840" height="2400" fill="white"/>
</clipPath>
</defs>
</svg>
