<?xml version="1.0" encoding="UTF-8"?>
<svg width="182px" height="43px" viewBox="0 0 182 43" version="1.1" xmlns="http://www.w3.org/2000/svg" xmlns:xlink="http://www.w3.org/1999/xlink">
    <g id="" stroke="none" stroke-width="1" fill="none" fill-rule="evenodd">
        <g id="" transform="translate(-1366.147247, -13.000000)" fill="#1A1E50" fill-rule="nonzero">
            <g transform="translate(0.000000, -0.043055)">
                <g id="Group" transform="translate(1366.000000, 20)">
                    <path d="M27.2111567,21.5648417 C25.2043339,21.5648417 24.0818737,20.1702699 24.0818737,18.7416842 C24.0818737,17.9253495 24.2519434,17.3811263 24.8982084,16.0545825 L30.4764955,4.35378507 C31.1227605,3.02724118 32.1771928,2.34696227 33.7078204,2.38097621 C35.2724619,2.38097621 36.3949221,3.09526908 36.9731592,4.35378507 L42.5174324,16.1226104 C43.0956694,17.3471124 43.2317252,17.8913355 43.2317252,18.7076702 C43.2317252,20.136256 42.143279,21.5648417 40.1364561,21.5648417 C38.7418844,21.5648417 38.0616054,21.0886464 37.2452707,19.7280886 L36.428936,18.4355587 C35.8847129,17.58521 35.0683782,16.6328195 33.6738064,16.6328195 C32.3132486,16.6328195 31.5309278,17.58521 30.9526908,18.4355587 L30.1023421,19.7280886 C29.2519935,21.0206186 28.5717145,21.5648417 27.2111567,21.5648417 Z M4.1497014,21.5308277 C2.10886464,21.5308277 0.850348647,20.4763954 0.850348647,18.231475 L0.850348647,5.85039869 C0.850348647,3.63949221 2.14287859,2.38097621 3.94561772,2.38097621 C5.20413372,2.38097621 5.88441264,2.72111567 6.63271945,3.60547826 L11.29263,8.84362593 L15.8845127,3.60547826 C16.6328195,2.72111567 17.2790845,2.38097621 18.5376005,2.38097621 C20.3743536,2.38097621 21.6668835,3.63949221 21.6668835,5.85039869 L21.6668835,18.231475 C21.6668835,20.4763954 20.4083675,21.5308277 18.3675308,21.5308277 C16.2926801,21.5308277 15.3743035,20.4423815 15.3743035,18.231475 L15.3743035,13.4355086 L13.8776899,15.2382478 C12.9933273,16.2586661 12.2790345,16.6668335 11.29263,16.6668335 C10.068128,16.6668335 9.21777934,16.0885964 8.57151436,15.2722617 L7.17694258,13.4355086 L7.17694258,18.231475 C7.17694258,20.5104094 6.15652421,21.5308277 4.1497014,21.5308277 Z M48.6739566,21.5648417 C46.7351616,21.5648417 45.4086178,19.8981583 45.4086178,18.4015447 C45.4086178,17.5171821 45.6467154,16.7008474 46.3269943,15.9185267 L49.8644447,12.0069229 L46.2589664,7.95926334 C45.5786875,7.17694258 45.3065759,6.36060788 45.3065759,5.44223134 C45.3065759,3.87758983 46.7691756,2.38097621 48.6059287,2.38097621 C49.5243052,2.38097621 50.4426817,2.78914356 51.2930304,3.77554799 L54.3202716,7.24497047 L57.3475128,3.80956194 C58.2318754,2.82315751 59.082224,2.38097621 60.0346145,2.38097621 C61.8033397,2.38097621 63.2999533,3.94561772 63.2999533,5.47624529 C63.2999533,6.39462183 63.0278417,7.21095653 62.3475628,7.99327728 L58.7420845,12.0409368 L62.245521,15.9525406 C62.9257999,16.7348614 63.1638975,17.5511961 63.1638975,18.4355587 C63.1638975,19.8981583 61.8713676,21.5648417 59.8305308,21.5648417 C59.0141961,21.5648417 58.1298335,21.1226604 57.2454709,20.1702699 L54.3202716,16.7688753 L51.3610583,20.1702699 C50.4766957,21.1906883 49.626347,21.5648417 48.6739566,21.5648417 Z M74.6606112,21.2587162 L74.6606112,2.68710173 L80.0688286,2.68710173 C86.0212691,2.68710173 88.6743569,5.03406399 88.6743569,9.28580723 C88.6743569,13.843676 85.3069763,16.1906382 80.2048844,16.1906382 L78.8783405,16.1906382 L78.8783405,21.2587162 L74.6606112,21.2587162 Z M78.8783405,12.7552297 L80.1368565,12.7552297 C83.1640977,12.7552297 84.4566276,11.7348113 84.4566276,9.42186301 C84.4566276,7.27898442 83.5382511,6.19053815 80.1368565,6.19053815 L78.8783405,6.19053815 L78.8783405,12.7552297 Z M95.9363344,5.98645448 C101.004412,5.98645448 102.807151,7.92524939 102.807151,12.7212158 L102.807151,21.2587162 L99.5077987,21.2587162 L99.337729,18.7076702 C98.3513245,20.5104094 96.4805575,21.4968138 94.269651,21.4968138 C91.5145214,21.4968138 89.6777683,19.8301305 89.6777683,17.2450706 C89.6777683,14.0137457 92.1607864,12.4150902 96.140418,12.4150902 C97.0928085,12.4150902 98.045199,12.4831181 99.0656174,12.6872018 C99.0316034,10.034114 98.2832966,9.1157375 95.5961949,9.1157375 C93.8614837,9.1157375 92.0927585,9.31982117 90.6641728,9.69397458 L90.9362843,6.49666366 C92.398884,6.19053815 94.0655673,5.98645448 95.9363344,5.98645448 Z M95.1199997,18.5716145 C97.1608364,18.5716145 99.0656174,17.4151403 99.0656174,15.1702199 L99.0656174,15.102192 C97.9431572,14.8981083 97.2968922,14.8640944 96.174432,14.8640944 C94.269651,14.8640944 93.1131769,15.5103593 93.1131769,16.9049311 C93.1131769,17.9253495 93.7254279,18.5716145 95.1199997,18.5716145 Z M107.450055,26.428836 C106.157525,26.428836 104.967037,26.0886965 104.286758,25.8165849 L104.490842,22.5172322 C105.647316,22.9253995 106.531679,23.0274414 107.279985,23.0274414 C108.334418,23.0274414 109.014697,22.8913856 109.660962,21.9389951 L103.878591,6.29257999 L107.858222,6.29257999 L111.531729,17.5171821 L115.137207,6.29257999 L119.116838,6.29257999 L113.606579,21.4627999 C112.314049,25.0342642 110.477296,26.428836 107.450055,26.428836 Z M121.038626,21.2587162 L121.038626,2.68710173 L127.467262,2.68710173 C132.195201,2.68710173 135.086386,4.72793848 135.086386,7.68715177 C135.086386,9.42186301 134.031954,10.9524906 131.821047,11.4286858 C134.542163,12.0069229 135.936735,13.6395923 135.936735,15.8164848 C135.936735,19.2859073 132.87548,21.2587162 128.147541,21.2587162 L121.038626,21.2587162 Z M125.256356,10.4762953 L127.467262,10.4762953 C129.848238,10.4762953 130.902671,9.65996063 130.902671,8.16334701 C130.902671,6.80278918 129.95028,5.98645448 127.467262,5.98645448 L125.256356,5.98645448 L125.256356,10.4762953 Z M125.256356,18.0614053 L128.147541,18.0614053 C130.562531,18.0614053 131.684991,17.3130985 131.684991,15.714443 C131.684991,14.0817736 130.528517,13.3334668 128.147541,13.3334668 L125.256356,13.3334668 L125.256356,18.0614053 Z M143.844977,5.98645448 C148.913055,5.98645448 150.715794,7.92524939 150.715794,12.7212158 L150.715794,21.2587162 L147.416441,21.2587162 L147.246372,18.7076702 C146.259967,20.5104094 144.3892,21.4968138 142.178294,21.4968138 C139.423164,21.4968138 137.586411,19.8301305 137.586411,17.2450706 C137.586411,14.0137457 140.069429,12.4150902 144.049061,12.4150902 C145.001451,12.4150902 145.953842,12.4831181 146.97426,12.6872018 C146.940246,10.034114 146.191939,9.1157375 143.504838,9.1157375 C141.770126,9.1157375 140.001401,9.31982117 138.572816,9.69397458 L138.844927,6.49666366 C140.307527,6.19053815 141.97421,5.98645448 143.844977,5.98645448 Z M143.028642,18.5716145 C145.069479,18.5716145 146.97426,17.4151403 146.97426,15.1702199 L146.97426,15.102192 C145.8518,14.8981083 145.205535,14.8640944 144.083075,14.8640944 C142.178294,14.8640944 141.02182,15.5103593 141.02182,16.9049311 C141.02182,17.9253495 141.634071,18.5716145 143.028642,18.5716145 Z M161.005013,21.5308277 C156.277074,21.5308277 153.04575,18.6736563 153.04575,13.7416341 C153.04575,8.77559804 156.277074,5.98645448 161.005013,5.98645448 C162.53564,5.98645448 163.964226,6.25856604 165.188728,6.5987055 L164.950631,9.9320722 C163.862184,9.59193274 162.671696,9.28580723 161.175083,9.28580723 C158.590023,9.28580723 156.957353,10.714393 156.957353,13.7416341 C156.957353,16.7008474 158.624037,18.1634471 161.209097,18.1634471 C162.671696,18.1634471 164.134296,17.9253495 165.188728,17.58521 L164.950631,20.8845628 C163.760142,21.3267441 162.501626,21.5308277 161.005013,21.5308277 Z M167.756781,21.2587162 L167.756781,0.408167351 L171.634371,0.136055784 L171.634371,11.7348113 L173.164999,11.7348113 L177.212658,6.29257999 L181.770527,6.29257999 L176.19224,13.2314249 L182.14468,21.2587162 L177.586811,21.2587162 L172.994929,14.8981083 L171.634371,14.8981083 L171.634371,21.2587162 L167.756781,21.2587162 Z" id="MPayBack"></path>
<!--                    <path d="M3.6428936,39.1619566 C2.73982334,39.1619566 1.57654639,39.0242001 1.04082674,38.7792997 L1.04082674,29.687372 L2.35716645,29.5955343 L2.35716645,32.3353577 L2.21940997,33.9425166 C2.57145431,32.8404648 3.5204434,32.3047451 4.54596387,32.3047451 C5.95414123,32.3047451 7.23986838,33.3302656 7.23986838,35.5955944 C7.23986838,38.2588863 5.64801571,39.1619566 3.6428936,39.1619566 Z M3.70411871,38.0905173 C5.23474627,38.0905173 5.89291612,37.4017349 5.89291612,35.7333509 C5.89291612,34.1414982 5.29597137,33.4374095 4.34698228,33.4374095 C3.07656141,33.4374095 2.3265539,34.5700739 2.3265539,36.2384579 C2.3265539,36.6517274 2.3265539,37.3098972 2.35716645,37.906842 C2.60206686,37.9833734 3.07656141,38.0905173 3.70411871,38.0905173 Z M8.45926834,41.4425917 C7.9847738,41.4425917 7.4184416,41.2436101 7.21946001,41.1364662 L7.31129767,39.9731892 C7.84701732,40.1874771 8.24498048,40.2487022 8.52049344,40.2487022 C9.04090682,40.2487022 9.37764488,40.1721708 9.69907667,39.5599198 L7.14292864,32.3812765 L8.52049344,32.3812765 L10.2654089,37.8915357 L12.0103243,32.3812765 L13.3878891,32.3812765 L10.8623536,39.575226 C10.3725528,40.9527908 9.59193274,41.4425917 8.45926834,41.4425917 Z M16.1634271,39.1160378 L16.1634271,29.687372 L17.4797668,29.5955343 L17.4797668,39.1160378 L16.1634271,39.1160378 Z M24.4084076,35.0598747 C24.4084076,35.3353877 24.3931013,35.6721257 24.2859574,36.0853952 L19.7552998,36.0853952 C19.8471374,37.6007165 20.6277575,38.0599047 21.9594035,38.0599047 C22.7553298,38.0599047 23.4594185,37.8762294 24.041057,37.4935726 L23.9798318,38.7180746 C23.3369683,39.0548127 22.6787984,39.2691005 21.7757282,39.2691005 C19.8471374,39.2691005 18.4236538,38.2741926 18.4236538,35.7333509 C18.4236538,33.5292472 19.9236688,32.2894388 21.6073591,32.2894388 C23.3522745,32.2894388 24.4084076,33.5292472 24.4084076,35.0598747 Z M19.7859123,35.0904873 L23.1073741,35.0904873 C23.1073741,34.1261919 22.709411,33.406797 21.546134,33.406797 C20.5818387,33.406797 19.9542814,33.9578229 19.7859123,35.0904873 Z M27.709461,39.1925691 C26.2400586,39.1925691 25.3369883,38.1058236 25.3369883,36.3609082 L25.3369883,32.3812765 L26.653328,32.3812765 L26.653328,36.2078454 C26.653328,37.5088788 27.0512912,38.0599047 27.9543614,38.0599047 C29.1023321,38.0599047 29.8829522,37.2486721 29.8829522,35.1364061 L29.8829522,32.3812765 L31.2145981,32.3812765 L31.2145981,39.1160378 L30.1584651,39.1160378 L30.0360149,37.7231667 C29.5309078,38.7792997 28.597225,39.1925691 27.709461,39.1925691 Z M32.6329797,39.1160378 L32.6329797,32.3812765 L33.8574817,32.3812765 L33.9034006,33.6516974 C34.4238139,32.687402 35.3115779,32.3047451 36.0768917,32.3047451 C36.9493494,32.3047451 37.8218071,32.7180145 38.0973201,34.0037417 C38.648346,32.7792397 39.704479,32.3047451 40.5616305,32.3047451 C41.7861325,32.3047451 42.9187969,33.131284 42.9187969,35.1364061 L42.9187969,39.1160378 L41.6024572,39.1160378 L41.6024572,35.1364061 C41.6024572,33.911904 41.1585752,33.406797 40.3473426,33.406797 C39.6585602,33.406797 38.4340582,33.9884354 38.4340582,36.3915207 L38.4340582,39.1160378 L37.1177184,39.1160378 L37.1177184,35.1364061 C37.1177184,33.911904 36.6738365,33.406797 35.8626038,33.406797 C35.1738214,33.406797 33.9493194,33.9884354 33.9493194,36.3915207 L33.9493194,39.1160378 L32.6329797,39.1160378 Z M44.9035107,30.743505 C44.4137098,30.743505 44.0922781,30.4220732 44.0922781,29.9322724 C44.0922781,29.4424716 44.4137098,29.1210398 44.9035107,29.1210398 C45.3933115,29.1210398 45.7147433,29.4424716 45.7147433,29.9322724 C45.7147433,30.4220732 45.3933115,30.743505 44.9035107,30.743505 Z M44.2453408,39.1160378 L44.2453408,32.3812765 L45.5616805,32.3812765 L45.5616805,39.1160378 L44.2453408,39.1160378 Z M52.3780753,39.2078754 C50.3423406,39.2078754 48.9035507,37.9374545 48.9035507,35.7333509 C48.9035507,33.4833283 50.3423406,32.24352 52.3780753,32.24352 C53.0668577,32.24352 53.694415,32.3659702 54.2454409,32.5649518 L54.1536032,33.6976162 C53.6484961,33.5292472 53.082164,33.3761844 52.3933815,33.3761844 C51.0770418,33.3761844 50.250503,34.1261919 50.250503,35.7333509 C50.250503,37.294591 51.0923481,38.075211 52.4086878,38.075211 C53.0974702,38.075211 53.7556401,37.9374545 54.2454409,37.7843918 L54.1536032,38.9323625 C53.6025773,39.1160378 53.0515514,39.2078754 52.3780753,39.2078754 Z M57.5005755,32.24352 C59.582229,32.24352 60.4087679,33.1925091 60.4087679,35.0904873 L60.4087679,39.1160378 L59.2607972,39.1160378 L59.2301847,37.906842 C58.7556901,38.7639934 57.8679261,39.238488 56.8577119,39.238488 C55.5872911,39.238488 54.7913647,38.4425616 54.7913647,37.3405098 C54.7913647,35.8711073 55.9546417,35.1517124 57.7301697,35.1517124 C58.1893579,35.1517124 58.6638525,35.1976312 59.1536533,35.2894689 L59.1536533,35.24355 C59.1536533,33.8965978 58.801609,33.3608781 57.4546567,33.3608781 C56.6587304,33.3608781 55.8474978,33.4527158 55.1893279,33.6516974 L55.2811656,32.4578079 C55.9393354,32.3200514 56.7046492,32.24352 57.5005755,32.24352 Z M57.0719998,38.1211299 C58.1281328,38.1211299 59.1536533,37.4935726 59.1536533,36.4680521 L59.1536533,36.2384579 C58.5107897,36.131314 58.2199705,36.131314 57.638332,36.131314 C56.6587304,36.131314 56.0464793,36.4680521 56.0464793,37.2486721 C56.0464793,37.7537792 56.3372986,38.1211299 57.0719998,38.1211299 Z M61.7353118,39.1160378 L61.7353118,32.3812765 L62.8985887,32.3812765 L62.9292013,33.7282287 C63.4496147,32.7027083 64.245541,32.3047451 65.026161,32.3047451 C65.2863677,32.3047451 65.6843309,32.3353577 65.9445376,32.4578079 L65.8526999,33.7282287 C65.577187,33.575166 65.2863677,33.5292472 64.9496297,33.5292472 C64.2149284,33.5292472 63.0516515,34.019048 63.0516515,35.9476387 L63.0516515,39.1160378 L61.7353118,39.1160378 Z M68.6639526,39.2231817 C67.1180187,39.2231817 66.0006606,38.075211 66.0006606,35.8711073 C66.0006606,33.4221032 67.5006756,32.3812765 69.5057977,32.3812765 C70.0262111,32.3812765 70.5619307,32.411889 70.8833625,32.4731141 L70.8833625,29.687372 L72.1997022,29.5955343 L72.1997022,39.1160378 L71.1282629,39.1160378 L70.9752002,37.8150043 C70.5160119,38.7792997 69.6129417,39.2231817 68.6639526,39.2231817 Z M68.8935467,38.0905173 C70.1639676,38.0905173 70.9139751,36.9731592 70.9139751,35.3047751 C70.9139751,34.8915057 70.9139751,34.2333358 70.8833625,33.6363911 C70.6384621,33.5598597 70.1639676,33.4527158 69.5364103,33.4527158 C68.0057827,33.4527158 67.3476129,34.1414982 67.3476129,35.8098822 C67.3476129,37.4017349 67.9445576,38.0905173 68.8935467,38.0905173 Z" id="byleumicard"></path>-->
                </g>
            </g>
        </g>
    </g>
</svg>